<mxfile host="65bd71144e">
    <diagram id="nbRTrxcI78Pvc1NFPYRO" name="第 1 页">
        <mxGraphModel dx="845" dy="823" grid="1" gridSize="1" guides="1" tooltips="1" connect="1" arrows="1" fold="0" page="0" pageScale="1" pageWidth="827" pageHeight="1169" background="none" math="1" shadow="0">
            <root>
                <mxCell id="0"/>
                <mxCell id="1" parent="0"/>
                <mxCell id="65" value="" style="edgeStyle=none;html=1;noEdgeStyle=1;orthogonal=1;" parent="1" source="2" target="8" edge="1">
                    <mxGeometry relative="1" as="geometry">
                        <Array as="points">
                            <mxPoint x="410.75171467764056" y="39"/>
                            <mxPoint x="410.75171467764056" y="115"/>
                        </Array>
                    </mxGeometry>
                </mxCell>
                <mxCell id="2" value="分配任务" style="rounded=0;whiteSpace=wrap;html=1;" parent="1" vertex="1">
                    <mxGeometry x="377.25171467764056" width="67" height="27" as="geometry"/>
                </mxCell>
                <mxCell id="69" value="" style="edgeStyle=none;html=1;noEdgeStyle=1;orthogonal=1;" parent="1" source="3" target="66" edge="1">
                    <mxGeometry relative="1" as="geometry">
                        <Array as="points">
                            <mxPoint x="478.75" y="420"/>
                            <mxPoint x="607" y="496"/>
                        </Array>
                    </mxGeometry>
                </mxCell>
                <mxCell id="77" value="" style="edgeStyle=none;html=1;noEdgeStyle=1;orthogonal=1;" parent="1" source="3" target="76" edge="1">
                    <mxGeometry relative="1" as="geometry">
                        <Array as="points">
                            <mxPoint x="450.25" y="420"/>
                            <mxPoint x="504.5" y="496"/>
                        </Array>
                    </mxGeometry>
                </mxCell>
                <mxCell id="3" value="紧急模式" style="rhombus;whiteSpace=wrap;html=1;" parent="1" vertex="1">
                    <mxGeometry x="431" y="381" width="67" height="27" as="geometry"/>
                </mxCell>
                <mxCell id="113" style="edgeStyle=orthogonalEdgeStyle;html=1;noEdgeStyle=1;orthogonal=1;" edge="1" parent="1" source="8" target="19">
                    <mxGeometry relative="1" as="geometry">
                        <Array as="points">
                            <mxPoint x="431.00171467764056" y="166"/>
                            <mxPoint x="477.5205761316872" y="242"/>
                        </Array>
                    </mxGeometry>
                </mxCell>
                <mxCell id="114" value="有" style="edgeLabel;html=1;align=center;verticalAlign=middle;resizable=0;points=[];" vertex="1" connectable="0" parent="113">
                    <mxGeometry width="30" height="26" relative="1" as="geometry">
                        <mxPoint x="-15" y="-13" as="offset"/>
                    </mxGeometry>
                </mxCell>
                <mxCell id="116" value="无" style="edgeStyle=orthogonalEdgeStyle;html=1;noEdgeStyle=1;orthogonal=1;" edge="1" parent="1" source="8" target="97">
                    <mxGeometry relative="1" as="geometry">
                        <Array as="points">
                            <mxPoint x="390.50171467764056" y="166"/>
                            <mxPoint x="342.1728395061728" y="242"/>
                        </Array>
                    </mxGeometry>
                </mxCell>
                <mxCell id="8" value="背包有东西？&lt;br&gt;" style="rhombus;whiteSpace=wrap;html=1;" parent="1" vertex="1">
                    <mxGeometry x="365.25171467764056" y="127" width="91" height="27" as="geometry"/>
                </mxCell>
                <mxCell id="67" value="" style="edgeStyle=none;html=1;noEdgeStyle=1;orthogonal=1;" parent="1" source="19" target="3" edge="1">
                    <mxGeometry relative="1" as="geometry">
                        <Array as="points">
                            <mxPoint x="466.2705761316872" y="293"/>
                            <mxPoint x="464.5" y="369"/>
                        </Array>
                    </mxGeometry>
                </mxCell>
                <mxCell id="132" value="" style="edgeStyle=orthogonalEdgeStyle;html=1;noEdgeStyle=1;orthogonal=1;" edge="1" parent="1" source="19" target="78">
                    <mxGeometry relative="1" as="geometry">
                        <Array as="points">
                            <mxPoint x="488.7705761316872" y="293"/>
                            <mxPoint x="555.5" y="369"/>
                        </Array>
                    </mxGeometry>
                </mxCell>
                <mxCell id="19" value="有能量" style="rhombus;whiteSpace=wrap;html=1;" parent="1" vertex="1">
                    <mxGeometry x="450.0205761316872" y="254" width="55" height="27" as="geometry"/>
                </mxCell>
                <mxCell id="64" value="是" style="edgeStyle=none;html=1;noEdgeStyle=1;orthogonal=1;" parent="1" source="38" target="63" edge="1">
                    <mxGeometry relative="1" as="geometry">
                        <Array as="points">
                            <mxPoint x="424.75" y="547"/>
                            <mxPoint x="374" y="623"/>
                        </Array>
                    </mxGeometry>
                </mxCell>
                <mxCell id="125" style="edgeStyle=orthogonalEdgeStyle;html=1;noEdgeStyle=1;orthogonal=1;" edge="1" parent="1" source="38" target="43">
                    <mxGeometry relative="1" as="geometry">
                        <Array as="points">
                            <mxPoint x="390.25" y="547"/>
                            <mxPoint x="288.25" y="623"/>
                        </Array>
                    </mxGeometry>
                </mxCell>
                <mxCell id="38" value="是否有尸体" style="rhombus;whiteSpace=wrap;html=1;" parent="1" vertex="1">
                    <mxGeometry x="368" y="508" width="79" height="27" as="geometry"/>
                </mxCell>
                <mxCell id="49" value="" style="edgeStyle=none;html=1;noEdgeStyle=1;orthogonal=1;" parent="1" source="43" target="48" edge="1">
                    <mxGeometry relative="1" as="geometry">
                        <Array as="points">
                            <mxPoint x="271" y="674"/>
                            <mxPoint x="271" y="750"/>
                        </Array>
                    </mxGeometry>
                </mxCell>
                <mxCell id="43" value="矿点桶富余" style="rhombus;whiteSpace=wrap;html=1;" parent="1" vertex="1">
                    <mxGeometry x="231.5" y="635" width="79" height="27" as="geometry"/>
                </mxCell>
                <mxCell id="48" value="从容器拿" style="whiteSpace=wrap;html=1;" parent="1" vertex="1">
                    <mxGeometry x="237.5" y="762" width="67" height="27" as="geometry"/>
                </mxCell>
                <mxCell id="141" value="" style="edgeStyle=orthogonalEdgeStyle;html=1;noEdgeStyle=1;orthogonal=1;" edge="1" parent="1" source="53" target="57">
                    <mxGeometry relative="1" as="geometry">
                        <Array as="points">
                            <mxPoint x="346.8117283950617" y="420"/>
                            <mxPoint x="322.5" y="496"/>
                        </Array>
                    </mxGeometry>
                </mxCell>
                <mxCell id="142" value="" style="edgeStyle=orthogonalEdgeStyle;html=1;noEdgeStyle=1;orthogonal=1;" edge="1" parent="1" source="53" target="38">
                    <mxGeometry relative="1" as="geometry">
                        <Array as="points">
                            <mxPoint x="369.3117283950617" y="420"/>
                            <mxPoint x="407.5" y="496"/>
                        </Array>
                    </mxGeometry>
                </mxCell>
                <mxCell id="53" value="补命？" style="rhombus;whiteSpace=wrap;html=1;" parent="1" vertex="1">
                    <mxGeometry x="330.5617283950617" y="381" width="55" height="27" as="geometry"/>
                </mxCell>
                <mxCell id="57" value="补" style="whiteSpace=wrap;html=1;" parent="1" vertex="1">
                    <mxGeometry x="307" y="508" width="31" height="27" as="geometry"/>
                </mxCell>
                <mxCell id="63" value="从尸体拿" style="whiteSpace=wrap;html=1;" parent="1" vertex="1">
                    <mxGeometry x="340.5" y="635" width="67" height="27" as="geometry"/>
                </mxCell>
                <mxCell id="71" value="" style="edgeStyle=none;html=1;noEdgeStyle=1;orthogonal=1;" parent="1" source="66" target="70" edge="1">
                    <mxGeometry relative="1" as="geometry">
                        <Array as="points">
                            <mxPoint x="627" y="547"/>
                            <mxPoint x="607" y="623"/>
                        </Array>
                    </mxGeometry>
                </mxCell>
                <mxCell id="72" value="是" style="edgeLabel;html=1;align=center;verticalAlign=middle;resizable=0;points=[];" parent="71" vertex="1" connectable="0">
                    <mxGeometry x="90" width="30" height="26" relative="1" as="geometry">
                        <mxPoint x="-15" y="-13" as="offset"/>
                    </mxGeometry>
                </mxCell>
                <mxCell id="81" value="" style="edgeStyle=none;html=1;noEdgeStyle=1;orthogonal=1;" parent="1" source="66" target="80" edge="1">
                    <mxGeometry relative="1" as="geometry">
                        <Array as="points">
                            <mxPoint x="587" y="547"/>
                            <mxPoint x="465" y="623"/>
                        </Array>
                    </mxGeometry>
                </mxCell>
                <mxCell id="66" value="spawn是否空" style="rhombus;whiteSpace=wrap;html=1;" parent="1" vertex="1">
                    <mxGeometry x="562" y="508" width="90" height="27" as="geometry"/>
                </mxCell>
                <mxCell id="70" value="补充spawn" style="whiteSpace=wrap;html=1;" parent="1" vertex="1">
                    <mxGeometry x="568" y="635" width="78" height="27" as="geometry"/>
                </mxCell>
                <mxCell id="76" value="放到塔" style="whiteSpace=wrap;html=1;" parent="1" vertex="1">
                    <mxGeometry x="477" y="508" width="55" height="27" as="geometry"/>
                </mxCell>
                <mxCell id="78" value="放到桶" style="whiteSpace=wrap;html=1;" parent="1" vertex="1">
                    <mxGeometry x="528" y="381" width="55" height="27" as="geometry"/>
                </mxCell>
                <mxCell id="80" value="放到桶" style="whiteSpace=wrap;html=1;" parent="1" vertex="1">
                    <mxGeometry x="437.5" y="635" width="55" height="27" as="geometry"/>
                </mxCell>
                <mxCell id="88" value="是" style="edgeStyle=none;html=1;noEdgeStyle=1;orthogonal=1;" parent="1" source="85" target="87" edge="1">
                    <mxGeometry relative="1" as="geometry">
                        <Array as="points">
                            <mxPoint x="270.14506172839504" y="420"/>
                            <mxPoint x="243.5" y="496"/>
                        </Array>
                    </mxGeometry>
                </mxCell>
                <mxCell id="107" value="没有" style="edgeStyle=orthogonalEdgeStyle;html=1;noEdgeStyle=1;orthogonal=1;" edge="1" parent="1" source="85" target="43">
                    <mxGeometry x="0.0189" relative="1" as="geometry">
                        <Array as="points">
                            <mxPoint x="241.64506172839506" y="420"/>
                            <mxPoint x="180" y="458"/>
                            <mxPoint x="180" y="585"/>
                            <mxPoint x="253.75" y="623"/>
                        </Array>
                        <mxPoint as="offset"/>
                    </mxGeometry>
                </mxCell>
                <mxCell id="85" value="桶有资源" style="rhombus;whiteSpace=wrap;html=1;" parent="1" vertex="1">
                    <mxGeometry x="222.39506172839506" y="381" width="67" height="27" as="geometry"/>
                </mxCell>
                <mxCell id="87" value="从桶中拿" style="whiteSpace=wrap;html=1;" parent="1" vertex="1">
                    <mxGeometry x="210" y="508" width="67" height="27" as="geometry"/>
                </mxCell>
                <mxCell id="103" value="是" style="edgeStyle=orthogonalEdgeStyle;html=1;noEdgeStyle=1;orthogonal=1;" edge="1" parent="1" source="97" target="85">
                    <mxGeometry relative="1" as="geometry">
                        <Array as="points">
                            <mxPoint x="324.9228395061728" y="293"/>
                            <mxPoint x="255.89506172839504" y="369"/>
                        </Array>
                    </mxGeometry>
                </mxCell>
                <mxCell id="134" value="" style="edgeStyle=orthogonalEdgeStyle;html=1;noEdgeStyle=1;orthogonal=1;" edge="1" parent="1" source="97" target="53">
                    <mxGeometry relative="1" as="geometry">
                        <Array as="points">
                            <mxPoint x="359.4228395061728" y="293"/>
                            <mxPoint x="358.0617283950617" y="369"/>
                        </Array>
                    </mxGeometry>
                </mxCell>
                <mxCell id="97" value="补充资源？" style="rhombus;whiteSpace=wrap;html=1;" vertex="1" parent="1">
                    <mxGeometry x="302.6728395061728" y="254" width="79" height="27" as="geometry"/>
                </mxCell>
            </root>
        </mxGraphModel>
    </diagram>
</mxfile>